<?xml version="1.0" encoding="UTF-8"?>
<svg width="500px" height="500px" viewBox="0 0 500 500" version="1.1" xmlns="http://www.w3.org/2000/svg" xmlns:xlink="http://www.w3.org/1999/xlink">
    <!-- Generator: Sketch 47.1 (45422) - http://www.bohemiancoding.com/sketch -->
    <title>Address</title>
    <desc>Created with Sketch.</desc>
    <defs></defs>
    <g id="Page-1" stroke="none" stroke-width="1" fill="none" fill-rule="evenodd">
        <g id="Address" fill-rule="nonzero" fill="#8B93AC">
            <g id="placeholder" transform="translate(92.000000, 39.000000)">
                <path d="M161,0 C72.2246,0 0,72.2710371 0,161.103516 C0,218.449758 17.4334103,241.447078 101.207903,351.95748 C115.749918,371.140365 132.233015,392.88273 151.092308,418.042969 C153.431349,421.16342 157.102149,423 161.000826,423 C164.899503,423 168.569477,421.162594 170.908518,418.041316 C189.657174,393.01657 206.068441,371.356822 220.548533,352.246641 C304.524482,241.414857 322,218.350617 322,161.103516 C322,72.2710371 249.7754,0 161,0 Z M200.811585,337.272275 C188.919051,352.967889 175.726133,370.380287 160.997523,389.972953 C146.168185,370.254709 132.900133,352.752258 120.941549,336.977332 C39.4524308,229.482457 24.7692308,210.112857 24.7692308,161.103516 C24.7692308,85.9375723 85.8823538,24.7851563 161,24.7851563 C236.117646,24.7851563 297.230769,85.9375723 297.230769,161.103516 C297.230769,210.017021 282.50959,229.446105 200.811585,337.272275 Z" id="Shape"></path>
                <path d="M160.5,77 C114.4581,77 77,117.1497 77,166.5 C77,215.8503 114.4581,256 160.5,256 C206.5419,256 244,215.8503 244,166.5 C244,117.1497 206.5419,77 160.5,77 Z M160.5,230.428571 C127.612929,230.428571 100.857143,201.750214 100.857143,166.5 C100.857143,131.249786 127.612929,102.571429 160.5,102.571429 C193.387071,102.571429 220.142857,131.249786 220.142857,166.5 C220.142857,201.750214 193.387071,230.428571 160.5,230.428571 Z" id="Shape"></path>
            </g>
        </g>
    </g>
</svg>