<?xml version="1.0" encoding="UTF-8"?>
<svg width="500px" height="500px" viewBox="0 0 500 500" version="1.1" xmlns="http://www.w3.org/2000/svg" xmlns:xlink="http://www.w3.org/1999/xlink">
    <!-- Generator: Sketch 47.1 (45422) - http://www.bohemiancoding.com/sketch -->
    <title>Image</title>
    <desc>Created with Sketch.</desc>
    <defs></defs>
    <g id="Page-1" stroke="none" stroke-width="1" fill="none" fill-rule="evenodd">
        <g id="Image" fill-rule="nonzero">
            <g id="Group" transform="translate(44.000000, 53.000000)">
                <path d="M28.0469484,29 L28.0469484,365 L383.953052,365 L383.953052,29 L28.0469484,29 Z M19.342723,0 L392.657277,0 C403.339968,0 412,8.954305 412,20 L412,374 C412,385.045695 403.339968,394 392.657277,394 L19.342723,394 C8.66003207,394 0,385.045695 0,374 L0,20 C-6.87191566e-15,8.954305 8.66003207,0 19.342723,0 Z" id="Rectangle-7" fill="#98A0BA"></path>
                <path d="M27.6157892,259.812512 L96.573737,190.161276 C99.3796072,187.327196 103.855334,187.310115 106.681361,190.122701 L311.532975,394 L331,373.088851 L126.148386,169.211552 C112.395052,155.523631 90.613183,155.606759 76.9579477,169.399281 L8,239.050517 L27.6157892,259.812512 Z" id="Path-3" fill="#989FBB"></path>
                <path d="M245.988137,307.36792 L291.976909,257.087594 L391.076852,346 L410,323.226913 L310.900057,234.314507 C299.202711,223.819656 281.635361,224.72008 270.988772,236.360181 L225,286.640508 L245.988137,307.36792 Z" id="Path-4" fill="#98A0BA"></path>
                <path d="M254,175 C220.31063,175 193,146.793939 193,112 C193,77.2060608 220.31063,49 254,49 C287.68937,49 315,77.2060608 315,112 C315,146.793939 287.68937,175 254,175 Z M254,149 C273.78582,149 289.825397,132.434536 289.825397,112 C289.825397,91.5654643 273.78582,75 254,75 C234.21418,75 218.174603,91.5654643 218.174603,112 C218.174603,132.434536 234.21418,149 254,149 Z" id="Oval" fill="#98A0BA"></path>
            </g>
        </g>
    </g>
</svg>