<?xml version="1.0" encoding="UTF-8"?>
<svg width="500px" height="500px" viewBox="0 0 500 500" version="1.1" xmlns="http://www.w3.org/2000/svg" xmlns:xlink="http://www.w3.org/1999/xlink">
    <!-- Generator: Sketch 47.1 (45422) - http://www.bohemiancoding.com/sketch -->
    <title>Page</title>
    <desc>Created with Sketch.</desc>
    <defs></defs>
    <g id="Page-1" stroke="none" stroke-width="1" fill="none" fill-rule="evenodd">
        <g id="Page" fill-rule="nonzero" fill="#98A0BA">
            <g id="file" transform="translate(50.000000, 50.000000)">
                <path d="M360,46.875 L346.666667,46.875 L346.666667,35.15625 C346.666667,15.7710937 328.722667,0 306.666667,0 L40,0 C17.944,0 0,15.7710937 0,35.15625 L0,317.96875 C0,337.353906 17.944,353.125 40,353.125 L53.3333333,353.125 L53.3333333,364.84375 C53.3333333,384.228906 71.2773333,400 93.3333333,400 L360,400 C382.056,400 400,384.228906 400,364.84375 L400,82.03125 C400,62.6460937 382.056,46.875 360,46.875 Z M65.0488889,90.3179687 C57.4933333,96.9578125 53.3333333,105.785937 53.3333333,115.176562 L53.3333333,329.6875 L40,329.6875 C32.648,329.6875 26.6666667,324.430469 26.6666667,317.96875 L26.6666667,35.15625 C26.6666667,28.6945312 32.648,23.4375 40,23.4375 L306.666667,23.4375 C314.018667,23.4375 320,28.6945312 320,35.15625 L320,46.875 L131.045333,46.875 C120.360889,46.875 110.316444,50.5320312 102.761778,57.171875 L65.0488889,90.3179687 Z M133.333333,70.3125 L133.333333,117.1875 L80,117.1875 L80,115.176562 C80,112.046875 81.3866667,109.103906 83.9048889,106.890625 L121.617778,73.7445312 C124.136,71.53125 127.484444,70.3125 131.045333,70.3125 L133.333333,70.3125 Z M373.333333,364.84375 C373.333333,371.305469 367.352,376.5625 360,376.5625 L93.3333333,376.5625 C85.9813333,376.5625 80,371.305469 80,364.84375 L80,140.625 L146.666667,140.625 C154.030222,140.625 160,135.378125 160,128.90625 L160,70.3125 L360,70.3125 C367.352,70.3125 373.333333,75.5695312 373.333333,82.03125 L373.333333,364.84375 Z" id="Shape"></path>
                <path d="M343.650794,162.5 L127.777778,162.5 C120.326561,162.5 114.285714,168.096667 114.285714,175 C114.285714,181.903333 120.326561,187.5 127.777778,187.5 L343.650794,187.5 C351.102011,187.5 357.142857,181.903333 357.142857,175 C357.142857,168.096667 351.102011,162.5 343.650794,162.5 Z" id="Shape"></path>
                <path d="M343.650794,212.5 L127.777778,212.5 C120.326561,212.5 114.285714,218.096667 114.285714,225 C114.285714,231.903333 120.326561,237.5 127.777778,237.5 L343.650794,237.5 C351.102011,237.5 357.142857,231.903333 357.142857,225 C357.142857,218.096667 351.102011,212.5 343.650794,212.5 Z" id="Shape"></path>
                <path d="M343.650794,262.5 L127.777778,262.5 C120.326561,262.5 114.285714,268.096667 114.285714,275 C114.285714,281.903333 120.326561,287.5 127.777778,287.5 L343.650794,287.5 C351.102011,287.5 357.142857,281.903333 357.142857,275 C357.142857,268.096667 351.102011,262.5 343.650794,262.5 Z" id="Shape"></path>
                <path d="M343.650794,312.5 L127.777778,312.5 C120.326561,312.5 114.285714,318.096667 114.285714,325 C114.285714,331.903333 120.326561,337.5 127.777778,337.5 L343.650794,337.5 C351.102011,337.5 357.142857,331.903333 357.142857,325 C357.142857,318.096667 351.102011,312.5 343.650794,312.5 Z" id="Shape"></path>
            </g>
        </g>
    </g>
</svg>