<?xml version="1.0" encoding="UTF-8"?>
<svg width="500px" height="500px" viewBox="0 0 500 500" version="1.1" xmlns="http://www.w3.org/2000/svg" xmlns:xlink="http://www.w3.org/1999/xlink">
    <!-- Generator: Sketch 47.1 (45422) - http://www.bohemiancoding.com/sketch -->
    <title>Price</title>
    <desc>Created with Sketch.</desc>
    <defs></defs>
    <g id="Page-1" stroke="none" stroke-width="1" fill="none" fill-rule="evenodd">
        <g id="Price" fill-rule="nonzero" fill="#989FBB">
            <g id="coin-(1)" transform="translate(50.000000, 50.000000)">
                <path d="M200,0 C89.7205223,0 0,89.7205223 0,200 C0,310.279478 89.7205223,400 200,400 C310.279478,400 400,310.279478 400,200 C400,89.7205223 310.281358,0 200,0 Z M200,373.680401 C104.233058,373.680401 26.3214793,295.766942 26.3214793,200 C26.3214793,104.233058 104.233058,26.3214793 200,26.3214793 C295.766942,26.3214793 373.678521,104.233058 373.678521,200 C373.678521,295.766942 295.766942,373.680401 200,373.680401 Z" id="Shape"></path>
                <path d="M214.534529,186.189567 L214.534529,121.248401 C220.743751,123.651996 226.161341,128.062126 229.928258,134.026177 C233.262521,139.30232 240.067428,140.763104 245.127607,137.289248 C250.189354,133.815393 251.590779,126.722257 248.256516,121.446114 C240.373108,108.968992 228.225856,100.498405 214.534529,97.5131114 L214.534529,79.3431799 C214.534529,73.0261876 209.621703,67.9052734 203.561401,67.9052734 C197.5011,67.9052734 192.588274,73.0261876 192.588274,79.3431799 L192.588274,97.4787977 C168.301609,102.756575 150,125.238597 150,152.096435 C150,178.954274 168.303176,201.439564 192.588274,206.717341 L192.588274,271.658506 C186.379052,269.254912 180.961462,264.844782 177.194544,258.88073 C173.860281,253.604588 167.055375,252.14217 161.995196,255.617659 C156.933449,259.091515 155.532024,266.184651 158.866287,271.460794 C166.749695,283.937916 178.896947,292.408502 192.588274,295.393796 L192.588274,313.562093 C192.588274,319.879086 197.5011,325 203.561401,325 C209.621703,325 214.534529,319.879086 214.534529,313.562093 L214.534529,295.42811 C238.821194,290.150333 257.122803,267.668311 257.122803,240.810472 C257.122803,213.952634 238.821194,191.467343 214.534529,186.189567 Z M171.946254,152.096435 C171.946254,137.957549 180.558592,125.908531 192.588274,121.256571 L192.588274,182.936299 C180.558592,178.284339 171.946254,166.235322 171.946254,152.096435 L171.946254,152.096435 Z M214.534529,271.648702 L214.534529,209.968974 C226.564211,214.620934 235.176548,226.669952 235.176548,240.808838 C235.176548,254.947725 226.565779,266.996742 214.534529,271.648702 Z" id="Shape"></path>
            </g>
        </g>
    </g>
</svg>