<?xml version="1.0" encoding="UTF-8"?>
<svg width="500px" height="500px" viewBox="0 0 500 500" version="1.1" xmlns="http://www.w3.org/2000/svg" xmlns:xlink="http://www.w3.org/1999/xlink">
    <!-- Generator: Sketch 47.1 (45422) - http://www.bohemiancoding.com/sketch -->
    <title>Property</title>
    <desc>Created with Sketch.</desc>
    <defs></defs>
    <g id="Page-1" stroke="none" stroke-width="1" fill="none" fill-rule="evenodd">
        <g id="Property" fill-rule="nonzero" fill="#989FBB">
            <g id="house-(1)" transform="translate(50.000000, 50.000000)">
                <path d="M389.701588,174.365806 L329.690015,114.353355 L329.690015,35.1635745 C329.690015,28.6917047 324.443153,23.4448339 317.971294,23.4448339 L271.09719,23.4448339 C264.625331,23.4448339 259.378468,28.6917047 259.378468,35.1635745 L259.378468,44.0424736 L225.642613,10.3065632 C211.841866,-3.49420692 189.599732,-3.36373827 175.967734,10.2675008 L10.3072014,174.365025 C-3.43495254,188.10642 -3.43651504,210.33609 10.3072014,224.079048 C20.3399894,234.111852 34.6860481,236.6806 46.8821121,232.38451 L46.8821121,388.281259 C46.8821121,394.753129 52.1289743,400 58.6008335,400 L341.407174,400 C347.879033,400 353.125896,394.753129 353.125896,388.281259 L353.125896,232.382166 C365.338366,236.689975 379.680518,234.099352 389.700806,224.079048 C396.342196,217.438428 400,208.61031 400,199.222818 C399.999219,189.834544 396.342196,181.006426 389.701588,174.365806 Z M282.814349,46.8815338 L306.25101,46.8815338 L306.25101,90.9158734 L282.814349,67.4791735 L282.814349,46.8815338 Z M235.940244,376.562519 L165.629478,376.562519 L165.629478,281.251658 L235.940244,281.251658 L235.940244,376.562519 Z M329.688453,376.562519 L259.377687,376.562519 L259.377687,269.533699 C259.377687,263.061829 254.130825,257.814958 247.658966,257.814958 L153.910757,257.814958 C147.438898,257.814958 142.192036,263.061829 142.192036,269.533699 L142.192036,376.562519 L70.3195549,376.562519 L70.3195549,213.889212 L200.741893,84.8338471 L329.688453,213.780618 L329.688453,376.562519 Z M373.128972,207.507186 C368.546171,212.089214 361.143064,212.089995 356.559481,207.507186 C351.524337,202.472034 221.174655,72.1221386 209.07156,60.0190233 C204.513759,55.4596519 197.125495,55.4401207 192.542694,59.9752733 C185.597398,66.8487053 49.1883565,201.827503 43.4485267,207.507186 C38.8797879,212.075151 31.4477748,212.075151 26.8790359,207.507186 C22.3110783,202.939221 22.3110783,195.505633 26.8399735,190.976731 L192.501288,26.8792062 C197.084089,22.2971786 204.487196,22.2963974 209.070779,26.8792062 C219.330129,37.1385729 368.421952,186.230641 373.129753,190.938449 C377.696929,195.506414 377.696929,202.93844 373.128972,207.507186 Z" id="Shape"></path>
                <path d="M193.75,137.5 C169.626577,137.5 150,157.125848 150,181.25 C150,205.374152 169.625848,225 193.75,225 C217.874152,225 237.5,205.374152 237.5,181.25 C237.5,157.125848 217.874152,137.5 193.75,137.5 Z M193.75,203.124635 C181.687924,203.124635 171.875365,193.311347 171.875365,181.25 C171.875365,169.188653 181.688653,159.375365 193.75,159.375365 C205.812076,159.375365 215.624635,169.188653 215.624635,181.25 C215.624635,193.311347 205.812076,203.124635 193.75,203.124635 Z" id="Shape"></path>
            </g>
        </g>
    </g>
</svg>