<?xml version="1.0" encoding="UTF-8"?>
<svg width="500px" height="500px" viewBox="0 0 500 500" version="1.1" xmlns="http://www.w3.org/2000/svg" xmlns:xlink="http://www.w3.org/1999/xlink">
    <!-- Generator: Sketch 47.1 (45422) - http://www.bohemiancoding.com/sketch -->
    <title>Region</title>
    <desc>Created with Sketch.</desc>
    <defs></defs>
    <g id="Page-1" stroke="none" stroke-width="1" fill="none" fill-rule="evenodd">
        <g id="Region" fill-rule="nonzero" fill="#98A0BA">
            <g id="map" transform="translate(50.000000, 50.000000)">
                <path d="M384.27601,0.714584702 L259.545062,46.0693969 L144.927751,0.827085011 C142.265158,-0.22448038 139.308804,-0.26432424 136.619647,0.71380345 L7.71433371,47.5865886 C3.08292088,49.270187 0,53.6717616 0,58.5999001 L0,388.275807 C0,396.454735 8.14559887,402.046157 15.723209,399.288337 L140.454157,353.932743 L255.071467,399.175055 C257.734061,400.226621 260.689634,400.266465 263.379572,399.288337 L392.285666,352.414771 C396.917079,350.731172 400,346.329598 400,341.40224 L400,11.7263337 C399.999219,3.59428012 391.902059,-2.06120418 384.27601,0.714584702 Z M259.545062,375.745303 C135.936029,326.953763 143.808181,329.684239 140.625256,329.684239 C137.675934,329.684239 145.758249,327.067045 23.438324,371.545292 L23.438324,66.8077352 L140.454157,24.2576182 L255.071467,69.4999301 C257.734061,70.5514955 260.689634,70.5905581 263.379572,69.6132117 L376.562457,28.4576297 L376.562457,333.195186 L376.562457,333.195186 L259.545062,375.745303 Z" id="Shape"></path>
                <path d="M330.050196,72.0478697 L256.124327,99.6931811 L148.40174,55.9635995 C145.898578,54.9471945 143.12153,54.909438 140.593403,55.8541057 L64.2502834,84.4025526 C59.8974699,86.030613 57,90.2850157 57,95.0468658 L57,317.280886 C57,325.141035 64.6115493,330.608177 71.7773904,327.925199 L145.70326,300.279888 C261.876678,347.440025 254.47807,344.800846 257.469528,344.800846 C260.24217,344.800846 255.423089,346.292228 337.577303,315.570517 C341.930116,313.942456 344.827586,309.688053 344.827586,304.926203 L344.827586,82.6929381 C344.827586,74.8320342 337.216771,69.3656478 330.050196,72.0478697 Z M134.096491,280.517379 L79.0276738,301.110531 L79.0276738,102.981017 L134.096491,82.3886207 L134.096491,280.517379 Z M245.702687,316.521225 L156.124165,280.157182 L156.124165,83.452599 L245.702687,119.816642 L245.702687,316.521225 Z M322.799912,296.992807 L267.731095,317.585204 L267.731095,119.456445 L322.799912,98.8632931 L322.799912,296.992807 Z" id="Shape"></path>
            </g>
        </g>
    </g>
</svg>