<?xml version="1.0" encoding="UTF-8"?>
<svg width="500px" height="500px" viewBox="0 0 500 500" version="1.1" xmlns="http://www.w3.org/2000/svg" xmlns:xlink="http://www.w3.org/1999/xlink">
    <!-- Generator: Sketch 47.1 (45422) - http://www.bohemiancoding.com/sketch -->
    <title>Selling Point</title>
    <desc>Created with Sketch.</desc>
    <defs></defs>
    <g id="Page-1" stroke="none" stroke-width="1" fill="none" fill-rule="evenodd">
        <g id="Selling-Point" fill-rule="nonzero" fill="#989FBB">
            <g id="amount-(1)" transform="translate(65.000000, 18.000000)">
                <path d="M363.114165,81.7379115 L190.415845,1.10251327 C187.268461,-0.367504425 183.731539,-0.367504425 180.584155,1.10251327 L7.88583485,81.7379115 C3.11080823,83.9675752 0,89.2029735 0,95.0070796 L0,449.628319 C0,457.565593 5.73149499,464 12.8016799,464 L358.19832,464 C365.268505,464 371,457.565593 371,449.628319 L371,95.0091327 C371,89.2029735 367.889192,83.9675752 363.114165,81.7379115 Z M345.39664,435.256637 L25.6033599,435.256637 L25.6033599,104.597097 L185.5,29.9382655 L345.39664,104.597097 L345.39664,435.256637 Z" id="Shape"></path>
                <path d="M119.793042,196.399012 L65.7362539,254.570305 C60.754582,259.931154 60.754582,268.621455 65.7362539,273.980344 C68.2270898,276.660768 71.490504,278 74.7557402,278 C78.0209765,278 81.2843906,276.658807 83.7752266,273.980344 L137.832015,215.809051 C146.977227,205.967756 161.432093,205.17755 171.459211,213.973735 C191.666504,231.703361 220.807645,230.111185 239.243839,210.27369 L283.490342,162.659388 L283.490342,178.163498 C283.490342,185.743981 289.200861,191.889154 296.245171,191.889154 C303.289481,191.889154 309,185.743981 309,178.163498 L309,129.725656 C309,122.145172 303.289481,116 296.245171,116 L251.233379,116 C244.189069,116 238.47855,122.145172 238.47855,129.725656 C238.47855,137.30614 244.189069,143.451313 251.233379,143.451313 L265.263691,143.451313 L221.204867,190.863651 C212.059654,200.704947 197.601144,201.495152 187.577671,192.700928 C167.370377,174.96738 138.229237,176.557596 119.793042,196.399012 L119.793042,196.399012 Z" id="Shape"></path>
                <path d="M52,313.5 C52,319.851286 57.4018149,325 64.0653174,325 L307.934683,325 C314.598185,325 320,319.851286 320,313.5 C320,307.148714 314.598185,302 307.934683,302 L64.0653174,302 C57.4018149,302 52,307.147071 52,313.5 Z" id="Shape"></path>
                <path d="M307.936406,348 L64.0653174,348 C57.4018149,348 52,353.148714 52,359.5 C52,365.851286 57.4018149,371 64.0653174,371 L307.934683,371 C314.598185,371 320,365.851286 320,359.5 C320,353.148714 314.599909,348 307.936406,348 Z" id="Shape"></path>
                <path d="M307.936406,394 L64.0653174,394 C57.4018149,394 52,399.148714 52,405.5 C52,411.851286 57.4018149,417 64.0653174,417 L307.934683,417 C314.598185,417 320,411.851286 320,405.5 C320,399.148714 314.599909,394 307.936406,394 Z" id="Shape"></path>
            </g>
        </g>
    </g>
</svg>