<?xml version="1.0" encoding="UTF-8"?>
<svg width="500px" height="500px" viewBox="0 0 500 500" version="1.1" xmlns="http://www.w3.org/2000/svg" xmlns:xlink="http://www.w3.org/1999/xlink">
    <!-- Generator: Sketch 47.1 (45422) - http://www.bohemiancoding.com/sketch -->
    <title>Video</title>
    <desc>Created with Sketch.</desc>
    <defs></defs>
    <g id="Page-1" stroke="none" stroke-width="1" fill="none" fill-rule="evenodd">
        <g id="Video" stroke="#98A0BA" stroke-width="4" fill="#98A0BA" fill-rule="nonzero">
            <g id="video-camera" transform="translate(50.000000, 50.000000)">
                <path d="M394.082812,189.139167 C390.424219,186.915833 385.928906,186.956667 382.307031,189.245833 L329.6875,222.5075 L329.6875,212.5 C329.6875,192.964167 315.607812,176.878333 297.705469,175.16 C317.296875,156.818333 329.6875,129.925 329.6875,100 C329.6875,44.86 287.63125,0 235.9375,0 C210.857031,0 187.075781,10.3616667 168.973437,29.175 C160.029687,38.47 153.058594,49.2408333 148.264062,60.9391667 C133.327344,39.1683333 109.203125,25 82.03125,25 C36.7992187,25 0,64.2525 0,112.5 C0,137.64 9.9953125,160.334167 25.9648437,176.309167 C11.0242187,180.630833 0,195.215 0,212.5 L0,362.5 C0,383.1775 15.7710937,400 35.15625,400 L294.53125,400 C313.916406,400 329.6875,383.1775 329.6875,362.5 L329.6875,352.4925 L382.307031,385.753333 C385.926562,388.041667 390.421875,388.085833 394.082812,385.86 C397.741406,383.6375 400,379.491667 400,375 L400,200 C400,195.508333 397.741406,191.3625 394.082812,189.139167 Z M235.9375,25 C274.707812,25 306.25,58.645 306.25,100 C306.25,141.355 274.707812,175 235.9375,175 C196.977344,175 164.0625,140.654167 164.0625,100 C164.0625,59.3458333 196.977344,25 235.9375,25 Z M154.978125,152.495 C158.896875,159.060833 163.573437,165.213333 168.972656,170.825 C170.3625,172.268333 171.789062,173.656667 173.242969,175 L139.377344,175 C145.636719,168.463333 150.924219,160.8725 154.978125,152.495 Z M23.4375,112.5 C23.4375,78.0375 49.7226562,50 82.03125,50 C114.339844,50 140.625,78.0375 140.625,112.5 C140.625,146.9625 114.339844,175 82.03125,175 C49.7226562,175 23.4375,146.9625 23.4375,112.5 Z M306.25,362.5 C306.25,369.3925 300.992969,375 294.53125,375 L35.15625,375 C28.6945312,375 23.4375,369.3925 23.4375,362.5 L23.4375,212.5 C23.4375,205.6075 28.6945312,200 35.15625,200 L294.53125,200 C300.992969,200 306.25,205.6075 306.25,212.5 L306.25,362.5 Z M376.5625,353.0625 L329.6875,323.4325 L329.6875,251.566667 L376.5625,221.936667 L376.5625,353.0625 Z" id="Shape"></path>
            </g>
        </g>
    </g>
</svg>