<svg xmlns="http://www.w3.org/2000/svg" viewBox="1456 332 18 18">
  <defs>
    <style>
      .cls-1 {
        fill: #8e8e8e;
      }

      .cls-2 {
        fill: none;
        opacity: 0.3;
      }
    </style>
  </defs>
  <g id="Group_83" data-name="Group 83" transform="translate(1436)">
    <g id="Group_82" data-name="Group 82" transform="translate(0 1.108)">
      <path id="Path_33" data-name="Path 33" class="cls-1" d="M61.748,20.158c-1.189-.5-1.575-.916-1.575-1.816,0-.546.37-.37.53-1.35.064-.418.386,0,.45-.948,0-.37-.177-.466-.177-.466s.1-.546.129-.98a1.929,1.929,0,0,0-3.857,0c.032.418.129.98.129.98s-.177.1-.177.466c.064.932.386.53.45.948.161,1,.53.82.53,1.35a1.48,1.48,0,0,1-.659,1.35c2.6,1.3,2.957,1.575,2.957,2.732V24.8h3.6a22.011,22.011,0,0,0-.225-3.359C63.581,20.977,62.938,20.656,61.748,20.158Z" transform="translate(-27.007 322.233)"/>
      <path id="Path_34" data-name="Path 34" class="cls-1" d="M1.35,9.949c-.482.209-1.35.514-1.35,1.27v2.925H11.17v-2.2c0-.691-1.35-1.334-2.957-2.009C6.622,9.274,6.107,8.711,6.107,7.506c0-.723.482-.482.691-1.8.08-.546.514-.016.595-1.254,0-.5-.241-.627-.241-.627s.113-.739.161-1.3A2.329,2.329,0,0,0,4.79,0,2.4,2.4,0,0,0,2.218,2.539c.048.563.161,1.3.161,1.3s-.241.129-.241.627c.08,1.254.514.707.595,1.254.209,1.318.691,1.077.691,1.8C3.456,8.727,2.941,9.274,1.35,9.949Z" transform="translate(21 332.892)"/>
    </g>
    <rect id="Rectangle_124" data-name="Rectangle 124" class="cls-2" width="18" height="18" transform="translate(20 332)"/>
  </g>
</svg>
