<svg xmlns="http://www.w3.org/2000/svg" viewBox="1458 286 18 18">
  <defs>
    <style>
      .cls-1 {
        fill: #8e8e8e;
      }

      .cls-2 {
        fill: none;
        opacity: 0.3;
      }
    </style>
  </defs>
  <g id="Group_82" data-name="Group 82" transform="translate(1436)">
    <path id="Path_31" data-name="Path 31" class="cls-1" d="M0,8.966a7.127,7.127,0,0,0,.569,1.364,2.148,2.148,0,0,1,2.209.552,2.139,2.139,0,0,1,.552,2.209,7.3,7.3,0,0,0,1.364.569,2.555,2.555,0,0,1,2.144-1.316,2.555,2.555,0,0,1,2.144,1.316,7.127,7.127,0,0,0,1.364-.569,2.156,2.156,0,0,1,.552-2.209,2.211,2.211,0,0,1,2.209-.715A7.3,7.3,0,0,0,13.677,8.8a2.309,2.309,0,0,1-1.316-1.982A2.309,2.309,0,0,1,13.677,4.84a7.127,7.127,0,0,0-.569-1.364A2.222,2.222,0,0,1,10.9,2.761,2.139,2.139,0,0,1,10.347.552,9.066,9.066,0,0,0,8.966,0,2.555,2.555,0,0,1,6.822,1.316,2.555,2.555,0,0,1,4.678,0,7.127,7.127,0,0,0,3.314.569a2.148,2.148,0,0,1-.552,2.209,2.211,2.211,0,0,1-2.209.715A7.574,7.574,0,0,0,0,4.84,2.309,2.309,0,0,1,1.316,6.822,2.555,2.555,0,0,1,0,8.966ZM6.822,3.85A2.973,2.973,0,1,1,3.85,6.822,2.974,2.974,0,0,1,6.822,3.85Z" transform="translate(24 288)"/>
    <rect id="Rectangle_124" data-name="Rectangle 124" class="cls-2" width="18" height="18" transform="translate(22 286)"/>
  </g>
</svg>
